<svg xmlns="http://www.w3.org/2000/svg" width="33" height="33" viewBox="0 0 33 33" fill="none">
  <path fill-rule="evenodd" clip-rule="evenodd" d="M22.4469 20.4858L29.8444 27.8833C30.1044 28.1435 30.2504 28.4963 30.2503 28.8641C30.2502 29.232 30.1039 29.5847 29.8437 29.8447C29.5835 30.1047 29.2307 30.2507 28.8629 30.2506C28.495 30.2505 28.1423 30.1042 27.8823 29.844L20.4848 22.4465C18.2734 24.1593 15.4926 24.9654 12.708 24.7006C9.92339 24.4359 7.34424 23.1203 5.49521 21.0215C3.64618 18.9227 2.66616 16.1983 2.75452 13.4025C2.84288 10.6068 3.99298 7.94971 5.97085 5.97183C7.94873 3.99396 10.6058 2.84385 13.4015 2.75549C16.1973 2.66714 18.9217 3.64716 21.0205 5.49619C23.1193 7.34522 24.4349 9.92436 24.6997 12.7089C24.9644 15.4935 24.1584 18.2744 22.4455 20.4858H22.4469ZM13.75 21.9996C15.9381 21.9996 18.0365 21.1305 19.5837 19.5833C21.1309 18.0361 22 15.9377 22 13.7496C22 11.5616 21.1309 9.46319 19.5837 7.91602C18.0365 6.36884 15.9381 5.49965 13.75 5.49965C11.562 5.49965 9.46359 6.36884 7.91642 7.91602C6.36924 9.46319 5.50005 11.5616 5.50005 13.7496C5.50005 15.9377 6.36924 18.0361 7.91642 19.5833C9.46359 21.1305 11.562 21.9996 13.75 21.9996Z" fill="#828286"/>
</svg>