<svg width="23" height="23" viewBox="0 0 23 23" fill="none" xmlns="http://www.w3.org/2000/svg">
<path d="M1.27778 0H21.7222C22.0611 0 22.3861 0.134623 22.6257 0.374252C22.8654 0.613882 23 0.93889 23 1.27778V21.7222C23 22.0611 22.8654 22.3861 22.6257 22.6257C22.3861 22.8654 22.0611 23 21.7222 23H1.27778C0.93889 23 0.613882 22.8654 0.374253 22.6257C0.134623 22.3861 0 22.0611 0 21.7222V1.27778C0 0.93889 0.134623 0.613882 0.374253 0.374252C0.613882 0.134623 0.93889 0 1.27778 0ZM2.55556 2.55556V20.4444H20.4444V2.55556H2.55556ZM18.2722 16.5344L19.4925 17.7534V17.8173H13.2046V17.7534L14.4874 16.5344C14.6152 16.4067 14.6791 16.2789 14.6791 16.0859V8.51511C14.6791 8.19311 14.6791 7.74461 14.7443 7.36L10.5097 17.9464H10.4458L6.08095 8.19311C6.01706 7.93756 5.95317 7.93756 5.88928 7.80978V14.2242C5.82411 14.674 5.88928 15.0586 6.08095 15.4445L7.81361 17.7534V17.8173H3.19317V17.7534L4.92583 15.3793C5.1175 14.996 5.18139 14.5462 5.1175 14.1603V7.10444C5.1175 6.78372 5.05361 6.39783 4.79806 6.14228L3.64167 4.53611V4.47222H8.13433L11.8552 12.7497L15.1289 4.47222H19.4925V4.53611L18.2735 5.94806C18.1457 6.07583 18.0818 6.26878 18.0818 6.39655V16.1498C18.0818 16.2776 18.1444 16.4706 18.2722 16.5344Z" fill="black"/>
</svg>
